<svg xmlns="http://www.w3.org/2000/svg"  viewBox="0 0 64 64" width="100px" height="100px"><linearGradient id="BF32rfzz2FXdipfC6Rkn_a" x1="32" x2="32" y1="5" y2="59" gradientUnits="userSpaceOnUse" spreadMethod="reflect"><stop offset="0" stop-color="#1a6dff"/><stop offset="1" stop-color="#c822ff"/></linearGradient><path fill="url(#BF32rfzz2FXdipfC6Rkn_a)" d="M56.449,16.818h0.005H56.449 M58.377,22.196h0.005H58.377 M53.125,23.819h0.005H53.125 M54.275,31.065h0.005H54.275 M12.613,31.364h0.005H12.613 M46.893,10.055c-0.383,2.424,1.755,6.007,3.957,6.681 C50.898,14.366,48.77,10.743,46.893,10.055L46.893,10.055z M17.04,10.079c-2.177,0.779-3.963,4.888-3.889,6.649 C15.443,15.943,17.755,11.955,17.04,10.079L17.04,10.079z M51.461,12.546c-0.896,1.945-0.045,6.242,1.697,6.956 c0-0.935,0.049-1.776-0.011-2.609c-0.093-1.299-0.372-2.56-1.103-3.665C51.887,12.991,51.674,12.793,51.461,12.546L51.461,12.546z M12.549,12.612c-1.412,0.93-2.102,4.681-1.556,6.798C12.585,18.909,13.415,14.391,12.549,12.612L12.549,12.612z M8.921,15.348 c-1,1.873-1.121,6.157,0.539,7.808C10.573,21.733,10.265,17.023,8.921,15.348L8.921,15.348z M55.052,15.388 c-1.419,1.339-1.556,6.642-0.515,7.765C56.32,21.37,55.968,16.723,55.052,15.388L55.052,15.388z M48.585,17.608 c-0.202,1.529,3.327,5.426,5.07,5.478C53.081,20.473,51.054,17.96,48.585,17.608L48.585,17.608z M15.441,17.613h0.005H15.441z M15.441,17.613c-2.248,0.208-5.174,3.42-5.058,5.516C12.376,22.673,15.314,19.493,15.441,17.613L15.441,17.613z M57.555,20.373 c-1.56,0.692-3.004,4.092-2.706,6.424C56.541,26.045,58.095,22.307,57.555,20.373L57.555,20.373z M6.409,20.379 c-0.462,2.041,1.126,5.795,2.694,6.367C9.551,24.72,7.93,20.889,6.409,20.379L6.409,20.379z M12.808,23.201 c-1.75,0.337-3.778,5.13-2.876,6.705C11.492,29.168,13.149,25.329,12.808,23.201L12.808,23.201z M51.217,23.221 c-0.57,1.721,1.395,6.221,2.914,6.672C54.727,27.746,52.836,23.417,51.217,23.221L51.217,23.221z M5.035,25.438 c0.639,2.314,1.637,4.265,3.5,5.659c0.263,0.197,0.605,0.286,1.034,0.481c-0.089-0.454-0.129-0.735-0.2-1.007 c-0.461-1.747-1.175-3.346-2.624-4.492C6.285,25.715,5.776,25.442,5.035,25.438L5.035,25.438z M58.694,25.492 c-1.793,0-4.53,3.853-4.141,5.941c1.614-0.006,4.137-3.878,4.296-5.931C58.798,25.495,58.746,25.492,58.694,25.492L58.694,25.492z M5.303,29.175c0.432,2.937,1.553,5.38,4.036,7.188C9.351,32.714,7.074,29.897,5.303,29.175L5.303,29.175z M58.675,29.235h0.005 H58.675z M58.675,29.235c-1.858,0.348-3.884,3.877-4.047,7.143C57.121,34.573,58.26,32.133,58.675,29.235L58.675,29.235z M11.312,29.847c-1.506,1.241-1.521,5.994-0.058,7.902C12.557,36.161,12.384,31.405,11.312,29.847L11.312,29.847z M52.681,29.857 c-1.06,1.367-1.279,6.463,0.081,7.868C54.188,35.693,54.138,30.907,52.681,29.857L52.681,29.857z M50.949,34.313 c-1.472,1.739-2.09,6.245-1.113,7.822C51.545,40.635,52.236,35.931,50.949,34.313L50.949,34.313z M13.04,34.341 c-1.035,1.14-0.914,6.063,1.115,7.773C15.218,40.417,14.367,35.719,13.04,34.341L13.04,34.341z M5.653,35.388 c-0.226,0-0.445,0.023-0.653,0.07c0.9,1.992,4.145,4.141,6.155,4.141c0.131,0,0.256-0.009,0.375-0.028 C10.249,37.171,7.658,35.388,5.653,35.388L5.653,35.388z M58.496,35.411c-2.249,0-5.053,1.826-5.965,4.166 c0.114,0.019,0.236,0.029,0.363,0.029c1.953,0,5.286-2.216,6.107-4.162C58.836,35.421,58.668,35.411,58.496,35.411L58.496,35.411z M9.208,40.249c-0.034,0-0.068,0-0.103,0.001C9.14,42.407,13,45.542,14.83,45.542c0.14,0,0.269-0.018,0.383-0.057 c-0.988-1.81-2.077-3.513-3.871-4.605C10.698,40.488,10.001,40.249,9.208,40.249L9.208,40.249z M54.577,40.272 c-2.369,0-4.888,3.112-5.746,5.275c0.078,0.012,0.16,0.018,0.245,0.018c2,0,5.746-3.188,5.838-5.271 C54.802,40.279,54.69,40.272,54.577,40.272L54.577,40.272z M14.985,40.809c0.13,0.751,0.212,1.46,0.379,2.149 c0.405,1.666,0.974,3.266,2.161,4.543c0.324,0.348,0.754,0.595,1.235,0.966C18.981,45.603,17.032,41.711,14.985,40.809 L14.985,40.809z M48.864,40.872c-2.009,1.017-4.079,5.234-3.622,7.379C46.93,48.025,49.312,43.172,48.864,40.872L48.864,40.872z M53.927,45.297c-3.015,0-6.343,1.45-7.06,3.18c0.11,0.047,0.19,0.109,0.27,0.109c0,0,0,0,0,0c0.387,0,0.776,0.002,1.161-0.032 c2.159-0.187,4.112-0.943,5.842-2.265c0.298-0.228,0.51-0.574,0.819-0.932C54.623,45.316,54.277,45.297,53.927,45.297L53.927,45.297 z M10.321,45.376c-0.426,0-0.845,0.031-1.249,0.095c0.313,0.323,0.586,0.703,0.946,0.959c1.972,1.399,4.157,2.167,6.578,2.167 c0,0,0,0,0.001,0c0.172,0,0.344-0.072,0.529-0.114C16.419,46.796,13.221,45.376,10.321,45.376L10.321,45.376z M47.173,48.988 c-1.583,0-3.318,0.393-4.612,1.28c0.462,0.601,1.659,1.079,3.355,1.079c1.393,0,3.122-0.322,5.057-1.162 C50.342,49.425,48.842,48.988,47.173,48.988L47.173,48.988z M16.768,49.019c-1.266,0-2.471,0.239-3.282,0.734 c-0.168,0.102-0.309,0.25-0.514,0.419c0.677,0.239,1.254,0.462,1.842,0.646c1.035,0.324,2.075,0.525,3.12,0.525 c0.796,0,1.594-0.117,2.394-0.384c0.401-0.134,0.765-0.381,1.193-0.6C20.41,49.481,18.529,49.019,16.768,49.019L16.768,49.019z M21.512,51.44c-1.036,0-2.056,0.265-3.056,0.72c-0.423,0.193-0.809,0.47-1.212,0.708c0.011,0.088,0.021,0.176,0.032,0.264 c0.806,0.147,1.607,0.337,2.419,0.431c0.282,0.033,0.561,0.048,0.839,0.048c1.291,0,2.541-0.325,3.784-0.711 c0.159-0.049,0.34-0.076,0.52-0.076c0.176,0,0.35,0.025,0.503,0.078c0.931,0.322,1.833,0.73,2.754,1.081 c0.06,0.023,0.126,0.03,0.195,0.03c0.117,0,0.241-0.021,0.358-0.021c0,0,0.001,0,0.001,0c-0.118-0.139-0.209-0.348-0.357-0.405 c-1.577-0.614-3.155-1.228-4.748-1.794C22.861,51.552,22.183,51.44,21.512,51.44L21.512,51.44z M42.443,51.441 c-1.146,0-2.227,0.38-3.296,0.768c-1.306,0.473-2.592,1.003-3.887,1.508c0.005,0.088,0.01,0.175,0.015,0.263 c0.132,0.029,0.272,0.094,0.399,0.094c0.022,0,0.043-0.002,0.064-0.006c0.183-0.038,0.348-0.169,0.522-0.256 c1.018-0.514,2.02-0.89,3.099-0.89c0.543,0,1.105,0.095,1.698,0.316c0.785,0.292,1.586,0.425,2.402,0.425 c1.104,0,2.235-0.243,3.385-0.664c-1.2-0.993-2.496-1.384-3.881-1.529C42.787,51.449,42.615,51.441,42.443,51.441L42.443,51.441z M25.473,55c-0.116,0.779-0.473,1.202-1.242,1.202c-0.073,0-0.15-0.004-0.23-0.011c0.893,0.42,0.865,1.049,0.554,1.809 c0.308-0.359,0.612-0.523,0.921-0.523c0.308,0,0.622,0.163,0.952,0.46c-0.452-0.819-0.242-1.368,0.572-1.807 c-0.158,0.032-0.301,0.048-0.431,0.048C25.893,56.177,25.581,55.751,25.473,55L25.473,55z M38.476,55 c-0.1,0.834-0.529,1.214-1.337,1.214c-0.045,0-0.092-0.001-0.139-0.004c0.969,0.392,0.833,1.046,0.558,1.789 c0.323-0.324,0.639-0.52,0.968-0.52c0.283,0,0.575,0.146,0.888,0.482c-0.386-0.827-0.231-1.417,0.586-1.85 c-0.158,0.034-0.3,0.051-0.428,0.051C38.903,56.163,38.618,55.711,38.476,55L38.476,55z M29.317,56 c0.043,0.96-0.449,1.236-1.208,1.236c-0.036,0-0.072-0.001-0.109-0.002c0.841,0.383,0.858,0.993,0.555,1.762 c0.304-0.329,0.594-0.494,0.884-0.494c0.291,0,0.583,0.166,0.888,0.498c-0.436-0.827-0.231-1.398,0.673-1.823 c-0.52-0.049-0.926,0.029-1.155-0.143c-0.227-0.171-0.276-0.595-0.404-0.909C29.4,56.084,29.359,56.042,29.317,56L29.317,56z M34.38,56c-0.106,0.681-0.363,1.16-0.973,1.16c-0.121,0-0.257-0.019-0.407-0.059c0.278,0.318,0.614,0.544,0.69,0.835 c0.078,0.299-0.098,0.664-0.173,1.052c0.364-0.203,0.662-0.501,0.943-0.501c0.006,0,0.012,0,0.019,0 c0.31,0.015,0.606,0.328,0.907,0.512c-0.382-0.779-0.273-1.391,0.614-1.787C35.417,57.019,34.683,56.469,34.38,56L34.38,56z M43,18 v-5.381c-0.101-3.189-1.843-5.607-4.907-6.63c-1.993-0.665-4-0.99-6.008-0.99c-2.064,0-4.128,0.343-6.179,1.011 c-1.739,0.567-3.123,1.658-3.99,3.301c-0.678,1.284-0.916,2.667-0.917,4.095v27.905c0.006,3.38,1.576,5.617,4.794,6.797 C27.744,48.823,29.775,49,31.827,49c0.242,0,0.485-0.003,0.728-0.007c1.939-0.035,3.833-0.315,5.631-1.069 c3.04-1.274,4.852-3.432,4.814-7.049V24.662c0.005-1.013-0.373-1.797-1.051-2.493C41.085,21.28,40,20,35,20c-3,0-5,1-5,1 s0-0.115,0-0.271c0-0.286,0-0.712,0-0.835C30,17.981,30,14,30,14s0.004-1,2.004-1S34,14,34,14v4H43z M32.004,11 c-3.158,0-4,1.958-4.004,3v5.895v0.834V21c0,0.688,0.36,1.324,0.943,1.69c0.322,0.203,0.692,0.305,1.063,0.305 c0.299,0,0.599-0.066,0.876-0.2C30.898,22.787,32.56,22,35,22c4.003,0,4.797,0.82,5.434,1.479l0.082,0.084 c0.404,0.415,0.486,0.724,0.484,1.088v16.245c0.027,2.568-1.046,4.118-3.587,5.183c-1.385,0.581-2.986,0.879-4.894,0.914 C32.288,46.998,32.057,47,31.827,47c-2.244,0-3.893-0.237-5.345-0.769c-2.436-0.893-3.478-2.365-3.482-4.919V13.408 c0.001-1.273,0.219-2.278,0.685-3.162c0.595-1.128,1.551-1.912,2.841-2.333C28.385,7.307,30.255,7,32.086,7 c1.803,0,3.611,0.298,5.374,0.887c2.232,0.745,3.455,2.393,3.54,4.766V16h-5v-1.993c0.002-0.677-0.308-1.394-0.831-1.919 C34.449,11.366,33.384,11,32.004,11z"/><linearGradient id="BF32rfzz2FXdipfC6Rkn_b" x1="32.876" x2="32.876" y1="27" y2="44" gradientUnits="userSpaceOnUse" spreadMethod="reflect"><stop offset="0" stop-color="#6dc7ff"/><stop offset="1" stop-color="#e6abff"/></linearGradient><path fill="url(#BF32rfzz2FXdipfC6Rkn_b)" d="M37.98,28.275c-0.068-0.937-0.531-1.382-1.402-1.253c-0.692,0.102-1.357,0.403-2.034,0.618 c-0.726,0.23-1.444,0.497-2.181,0.68c-0.468,0.116-0.857-0.534-1.092-1.016c-0.062-0.126-0.203-0.31-0.297-0.303 c-0.772,0.055-1.827,0.103-2.586,0.25c-0.391,0.075-0.702,0.919-0.577,1.237c0.093,0.235,0.18,0.496,0.181,0.745 C27.996,30.341,27.998,31.891,28,33c0.005,3.057,0.004,6.113,0.002,9.17c0,0.192-0.034,0.388-0.076,0.576 c-0.061,0.274-0.416,0.55,0.043,0.8c0.269,0.147,0.528,0.46,0.787,0.454c0.598-0.013,1.253-0.167,1.847-0.281 c0.298-0.057,0.392-0.274,0.388-0.589c-0.013-1.019-0.004-4.845-0.004-5.739C30.986,36,32,36,32,36c1.105,0,2-0.895,2-2v-2.156 c0,0,2.576-0.597,3.616-0.832c0.147-0.033,0.362-0.242,0.367-0.378C38.016,29.848,38.037,29.057,37.98,28.275z M31,32.781l2-0.594 V34c0,0.552-0.448,1-1,1h-1V32.781z"/></svg>